<svg width="36" height="36" viewBox="0 0 36 36" fill="none" xmlns="http://www.w3.org/2000/svg">
<g filter="url(#filter0_d_4_84)">
<rect x="4" y="4" width="28" height="28" rx="6" fill="white"/>
<path fill-rule="evenodd" clip-rule="evenodd" d="M16.8333 7.5C15.5447 7.5 14.5 8.54467 14.5 9.83333V10.4167H12.1667C11.5223 10.4167 11 10.939 11 11.5833C11 12.2277 11.5223 12.75 12.1667 12.75H23.8333C24.4777 12.75 25 12.2277 25 11.5833C25 10.939 24.4777 10.4167 23.8333 10.4167H21.5V9.83333C21.5 8.54467 20.4553 7.5 19.1667 7.5H16.8333ZM19.1667 10.4167H16.8333V9.83333L19.1667 9.83333V10.4167Z" fill="#FFB0B0"/>
<path d="M13.3333 14.5C13.3333 13.8557 12.811 13.3333 12.1667 13.3333C11.5223 13.3333 11 13.8557 11 14.5V25C11 26.933 12.567 28.5 14.5 28.5H21.5C23.433 28.5 25 26.933 25 25V14.5C25 13.8557 24.4777 13.3333 23.8333 13.3333C23.189 13.3333 22.6667 13.8557 22.6667 14.5V25C22.6667 25.6443 22.1443 26.1667 21.5 26.1667H14.5C13.8557 26.1667 13.3333 25.6443 13.3333 25V14.5Z" fill="#FFB0B0"/>
<path d="M16.8333 16.8333C16.8333 16.189 16.311 15.6667 15.6667 15.6667C15.0223 15.6667 14.5 16.189 14.5 16.8333V23.8333C14.5 24.4777 15.0223 25 15.6667 25C16.311 25 16.8333 24.4777 16.8333 23.8333V16.8333Z" fill="#FFB0B0"/>
<path d="M20.3333 15.6667C20.9777 15.6667 21.5 16.189 21.5 16.8333V23.8333C21.5 24.4777 20.9777 25 20.3333 25C19.689 25 19.1667 24.4777 19.1667 23.8333V16.8333C19.1667 16.189 19.689 15.6667 20.3333 15.6667Z" fill="#FFB0B0"/>
</g>
<defs>
<filter id="filter0_d_4_84" x="0" y="0" width="36" height="36" filterUnits="userSpaceOnUse" color-interpolation-filters="sRGB">
<feFlood flood-opacity="0" result="BackgroundImageFix"/>
<feColorMatrix in="SourceAlpha" type="matrix" values="0 0 0 0 0 0 0 0 0 0 0 0 0 0 0 0 0 0 127 0" result="hardAlpha"/>
<feOffset/>
<feGaussianBlur stdDeviation="2"/>
<feComposite in2="hardAlpha" operator="out"/>
<feColorMatrix type="matrix" values="0 0 0 0 0 0 0 0 0 0 0 0 0 0 0 0 0 0 0.25 0"/>
<feBlend mode="normal" in2="BackgroundImageFix" result="effect1_dropShadow_4_84"/>
<feBlend mode="normal" in="SourceGraphic" in2="effect1_dropShadow_4_84" result="shape"/>
</filter>
</defs>
</svg>
