<svg width="24" height="24" viewBox="0 0 24 24" fill="none" xmlns="http://www.w3.org/2000/svg">
<path fill-rule="evenodd" clip-rule="evenodd" d="M11 3C9.89543 3 9 3.89543 9 5V5.5H7C6.44772 5.5 6 5.94772 6 6.5C6 7.05228 6.44772 7.5 7 7.5H17C17.5523 7.5 18 7.05228 18 6.5C18 5.94772 17.5523 5.5 17 5.5H15V5C15 3.89543 14.1046 3 13 3H11ZM13 5.5H11V5L13 5V5.5Z" fill="#FFB0B0"/>
<path d="M8 9C8 8.44772 7.55228 8 7 8C6.44772 8 6 8.44772 6 9V18C6 19.6569 7.34315 21 9 21H15C16.6569 21 18 19.6569 18 18V9C18 8.44772 17.5523 8 17 8C16.4477 8 16 8.44772 16 9V18C16 18.5523 15.5523 19 15 19H9C8.44772 19 8 18.5523 8 18V9Z" fill="#FFB0B0"/>
<path d="M11 11C11 10.4477 10.5523 10 10 10C9.44772 10 9 10.4477 9 11V17C9 17.5523 9.44772 18 10 18C10.5523 18 11 17.5523 11 17V11Z" fill="#FFB0B0"/>
<path d="M14 10C14.5523 10 15 10.4477 15 11V17C15 17.5523 14.5523 18 14 18C13.4477 18 13 17.5523 13 17V11C13 10.4477 13.4477 10 14 10Z" fill="#FFB0B0"/>
</svg>
