<svg width="32" height="32" viewBox="0 0 32 32" fill="none" xmlns="http://www.w3.org/2000/svg">
<path d="M17.3333 6.66671C17.3333 5.93033 16.7363 5.33337 15.9999 5.33337C15.2635 5.33337 14.6666 5.93033 14.6666 6.66671V14.6667H6.66659C5.93021 14.6667 5.33325 15.2637 5.33325 16C5.33325 16.7364 5.93021 17.3334 6.66659 17.3334H14.6666V25.3334C14.6666 26.0698 15.2635 26.6667 15.9999 26.6667C16.7363 26.6667 17.3333 26.0698 17.3333 25.3334V17.3334H25.3333C26.0696 17.3334 26.6666 16.7364 26.6666 16C26.6666 15.2637 26.0696 14.6667 25.3333 14.6667H17.3333V6.66671Z" fill="#4C4C4C"/>
</svg>
